<?xml version="1.0" encoding="UTF-8"?>
<!-- Created with Inkscape (http://www.inkscape.org/) -->
<svg width="165.9mm" height="89.958mm" version="1.1" viewBox="0 0 165.9 89.958" xmlns="http://www.w3.org/2000/svg">
 <g transform="translate(1466 352.05)" stroke-width="1.3187">
  <path d="m-1355.9-321.84c-0.9324 0-1.7209 0.68995-1.9187 1.6262h-5e-4l-4.6235 23.854c-0.3429 1.7223-0.5411 3.103-0.5411 4.2318 0 3.1004 1.4272 4.1331 4.6752 4.1331 0.9812 0 1.9162-0.78439 1.9162-1.8671 0-2.2155-3.2453-0.19783-3.2453-3.1492 0-0.78992 0.1487-1.869 0.4428-3.3486l4.575-23.612c0.049-0.24265 0.0976-0.49177 0.0976-0.59067 0-0.73453-0.5891-1.278-1.3777-1.278zm25.627 0.00155c-0.8822 0-1.7196 0.68943-1.9188 1.6257h-5e-4l-2.0138 10.43c-0.5921-0.39562-1.9675-1.233-4.5284-1.233-7.1806 0-13.182 6.2972-13.182 14.61 0 5.3132 3.1995 8.7101 8.4125 8.7101 2.3618 0 4.7699-1.234 6.1479-1.9699 0.542 1.4809 2.0691 1.6722 2.4608 1.6722 0.9838 0 1.9188-0.83474 1.9188-1.9188 0-1.1302-1.3782-1.0314-1.3782-2.064 0-0.29539 0.0508-0.64087 0.1488-1.1829l5.2131-26.811c0.049-0.24265 0.0982-0.49177 0.0982-0.59067 0-0.73453-0.587-1.278-1.3782-1.278zm-96.806 2.02c-0.9337 0-1.7194 0.69132-1.9172 1.6237-0.3453 1.622-0.3943 1.8686-0.3943 1.9689 0 0.7886 0.5417 1.3265 1.3777 1.3265 0.9838 0 1.7212-0.68823 1.9177-1.6206 0.3443-1.6748 0.3943-1.9188 0.3943-2.019 0-0.73718-0.5909-1.2795-1.3782-1.2795zm15.986 8.8026c-3.099 0-5.4583 1.3784-6.0017 1.7239v-0.29818c0-0.63695-0.3912-1.1286-1.2774-1.1286-0.935 0-1.6238 0.63517-1.819 1.5715l-3.7399 19.287c-0.0492 0.2466-0.1002 0.49203-0.1002 0.58963 0 0.74113 0.5435 1.278 1.3782 1.278 0.935 0 1.7209-0.68743 1.9187-1.6211l3.297-16.926c0.5894-0.34288 2.4592-1.3281 5.0664-1.3281 3.0489 0 4.3785 0.73831 4.3785 3.2479 0 0.68706-0.0978 1.4745-0.2956 2.4582l-2.3616 12.301c-0.048 0.2466-0.0992 0.49203-0.0992 0.58963 0 0.74113 0.5421 1.278 1.3782 1.278 0.935 0 1.7208-0.68743 1.9187-1.6211l2.5069-13.04c0.1978-1.0312 0.3441-1.966 0.3441-2.7533 0-0.39562-0.0466-0.78735-0.0976-1.1777 1.4757-0.74245 3.4427-1.2831 5.5092-1.2831 3.0502 0 4.4762 0.73838 4.4762 3.2954 0 0.68971-0.0975 1.477-0.294 2.4107h5e-4l-2.3606 12.301c-0.05 0.2466-0.0992 0.49205-0.0992 0.63975 0 0.73717 0.4907 1.2278 1.3281 1.2278 0.935 0 1.771-0.68743 1.9662-1.6211l2.5095-13.04c0.1964-1.0827 0.2955-2.065 0.2955-2.9011 0-3.8375-2.1139-5.4612-6.5422-5.4612-2.7035 0-5.3133 0.78891-7.5763 2.0681-0.935-1.4269-2.8024-2.0681-5.6074-2.0681zm37.147 0c-6.7862 0-12.739 6.0016-12.739 14.759 0 5.1642 2.9526 8.5612 7.9691 8.5612 3.8864 0 8.0668-1.9698 8.3147-2.1162 0.4431-0.24661 1.0325-0.83506 1.0325-1.6237 0-0.73981-0.4919-1.3317-1.2304-1.3317-0.1965 0-0.5418 0.05154-0.8372 0.19792-0.5908 0.19781-3.8877 1.7219-6.6399 1.7219-3.4933 0-5.2131-2.5542-5.2131-5.8022h-5e-4c0-0.24661 1e-4 -0.54353 0.0491-0.79014 8.3134-0.14374 16.379-1.2263 16.379-7.9189 0-2.7047-2.3105-5.6575-7.0843-5.6575zm59.608 0c-7.1805 0-13.182 6.2972-13.182 14.61 0 5.3132 3.1995 8.7101 8.4098 8.7101 2.3645 0 4.7726-1.234 6.1506-1.9699 0.5407 1.4809 2.0665 1.6722 2.4608 1.6722 0.9838 0 1.9162-0.83474 1.9162-1.9188 0-1.1302-1.3757-1.0314-1.3757-2.064 0-0.29539 0.0488-0.64087 0.1468-1.1829l3.0499-15.693c0.0492-0.24529 0.1003-0.49176 0.1003-0.59066 0-0.73585-0.5936-1.2764-1.3782-1.2764-1.1342 0-1.721 0.93633-1.772 1.1803-1.3755-0.9363-2.9492-1.4774-4.5264-1.4774zm-114.51 0.29972c-0.9364 0-1.721 0.68714-1.9188 1.6221l-3.7382 19.236c-0.05 0.2466-0.0992 0.49203-0.0992 0.58963 0 0.74114 0.5422 1.278 1.3782 1.278 0.9337 0 1.7222-0.6869 1.9187-1.6206l3.7372-19.238c0.05-0.24528 0.0988-0.49176 0.0988-0.59066 0-0.73586-0.5908-1.2764-1.3767-1.2764zm54.314 2.8484c2.9514 0 4.2808 1.6732 4.2808 3.0499 0 2.9039-3.7861 4.2807-12.594 4.4297 1.3306-4.8226 4.4295-7.4796 8.3132-7.4796zm35.214 0c2.1641 0 3.8838 0.98523 4.4746 1.3782l-2.7533 14.022c-0.7372 0.44178-3.2458 1.6206-5.2648 1.6206-4.0341 0-5.6534-2.9024-5.6534-6.2942 0-6.2495 4.3242-10.726 9.1969-10.726zm24.394 0c2.1667 0 3.8834 0.98523 4.4768 1.3782l-2.7534 14.022c-0.7398 0.44178-3.2479 1.6206-5.2642 1.6206-4.0341 0-5.656-2.9024-5.656-6.2942 0-6.2495 4.3267-10.726 9.1968-10.726zm1.4149 27.755c-1.6814 0-3.6674 1.2436-3.6674 3.2639 0 2.561 4.0535 2.4595 4.0535 4.4297 0 1.3293-1.2435 2.2562-2.6572 2.2562-1.3649 0-1.9041-0.99425-2.3234-0.99425-0.3033 0-0.6382 0.26763-0.6382 0.6382 0 0.13583 0.0487 0.25451 0.1674 0.35605 0.6053 0.53673 1.2766 1.0764 2.5756 1.0764 2.1377 0 4.0405-1.4642 4.0405-3.6018 0-2.6282-4.0591-2.4749-4.0591-4.4121 0-1.1288 1.1947-1.9374 2.2892-1.9374 1.1619 0 1.7183 0.84233 2.0888 0.84233 0.3205 0 0.6583-0.30329 0.6583-0.67386 0-0.36793-1.113-1.2433-2.528-1.2433zm-122.41 0.0987c-0.3376 0-0.6739 0.25341-0.6739 0.62529 0 0.26902 0.1846 0.45217 0.4708 0.45217h4.8834c-1.8001 2.1232-6.0264 7.1556-6.9535 8.5034-0.1161 0.15034-0.2022 0.31782-0.2352 0.5209-0.034 0.1688-0.0511 0.26929-0.0511 0.30489 0 0.25056 0.1859 0.4191 0.4707 0.4191h5.9263c0.3376 0 0.6568-0.26896 0.6568-0.6382 0-0.27034-0.1672-0.4377-0.4547-0.4377h-5.1827c1.4454-1.8871 5.8394-7.2057 6.934-8.4176 0.1345-0.15298 0.2703-0.38777 0.3033-0.60668 0.034-0.20309 0.0496-0.28739 0.0496-0.32039 0-0.2532-0.2015-0.40515-0.4692-0.40515h-5.6746zm14.077 0c-0.3191 0-0.5898 0.23771-0.6568 0.55553h5e-4l-1.8676 9.632-0.0357 0.2005c0 0.25188 0.1859 0.4377 0.4734 0.4377 0.3178 0 0.5873-0.23587 0.6563-0.55501l1.8676-9.6309 0.033-0.20154c0-0.25056-0.2016-0.43822-0.4707-0.43822zm9.3157 0c-0.3191 0-0.5877 0.20331-0.6537 0.52245l-1.8687 9.6795-0.0361 0.20464c0 0.25056 0.1861 0.4191 0.4723 0.4191h4.7134c0.3376 0 0.6568-0.26896 0.6568-0.6382 0-0.27034-0.1678-0.4377-0.4553-0.4377h-4.1578l0.7911-4.0752h3.5517c0.3547 0 0.6739-0.2691 0.6739-0.65681 0-0.25319-0.2018-0.42167-0.4708-0.42167h-3.5517l0.6883-3.5186h3.8391c0.3534 0 0.6754-0.30042 0.6754-0.67231 0-0.2532-0.2031-0.40515-0.4734-0.40515h-4.3945zm13.446 0c-0.3191 0-0.5898 0.23771-0.6568 0.55553h-6e-4l-1.8696 9.632-0.0331 0.2005c0 0.25188 0.1847 0.4377 0.4708 0.4377 0.3218 0 0.5898-0.23587 0.6568-0.55501l0.91-4.6964c1.0946 0.90729 2.7109 2.4582 4.0561 5.0152 0.0672 0.15165 0.2193 0.23616 0.4382 0.23616 0.3217 0 0.6408-0.25186 0.6408-0.62374l-0.0512-0.2191c-1.448-2.7087-3.1477-4.2923-3.8374-4.8989l4.9836-4.1579c0.1332-0.1332 0.2346-0.301 0.2346-0.5054 0-0.23342-0.1674-0.42065-0.4377-0.42065-0.1675 0-0.3034 0.07022-0.4537 0.18759l-5.4059 4.5268 0.7928-4.0747 0.033-0.20154c0-0.25056-0.2003-0.43822-0.4707-0.43822zm14.698 0c-0.3205 0-0.5898 0.20331-0.6568 0.52245l-1.8687 9.6795-0.032 0.20464c0 0.25056 0.1835 0.4191 0.4697 0.4191h4.7135c0.3363 0 0.6562-0.26896 0.6562-0.6382 0-0.27034-0.1671-0.4377-0.4532-0.4377h-4.1584l0.7902-4.0752h3.5527c0.3534 0 0.6754-0.2691 0.6754-0.65681 0-0.25319-0.2035-0.42167-0.4738-0.42167h-3.5512l0.6898-3.5186h3.8375c0.3561 0 0.6749-0.30042 0.6749-0.67231 0-0.2532-0.2041-0.40515-0.4718-0.40515h-4.394zm13.448 0c-0.302 0-0.5883 0.23771-0.6583 0.55553l-1.8671 9.632-0.0331 0.2005c0 0.26902 0.2005 0.4377 0.4708 0.4377 0.3205 0 0.5914-0.21873 0.6584-0.55501l1.6836-8.6367c0.6053 1.2462 1.9349 7.8296 2.8778 8.94 0.1516 0.18328 0.438 0.25167 0.6569 0.25167h0.203c0.3007 0 0.5712-0.21873 0.6382-0.55501l1.8697-9.6454 0.032-0.18707c0-0.25056-0.1829-0.43822-0.4532-0.43822-0.3376 0-0.6078 0.23771-0.6728 0.55553h-5e-4l-1.6841 8.6377c-0.7754-1.7684-1.8341-7.7436-2.8614-8.9555-0.1859-0.20306-0.4893-0.23771-0.6568-0.23771h-0.2031zm15.38 0c-0.3192 0-0.5898 0.23772-0.6568 0.55553l-1.8697 9.632-0.0341 0.2005c0 0.25188 0.1856 0.4377 0.4718 0.4377 0.3218 0 0.5918-0.23588 0.6568-0.55501l0.894-4.5961h5.0168l-0.8759 4.5129-0.0326 0.2005c0 0.25188 0.182 0.4377 0.4708 0.4377 0.3191 0 0.5873-0.23588 0.6563-0.55501l1.8676-9.6309 0.0341-0.20154c0-0.25056-0.2047-0.43822-0.4724-0.43822-0.3191 0-0.5898 0.23772-0.6568 0.55553l-0.7896 4.0406h-5.0178l0.7752-3.9564 0.0331-0.20154c0-0.25056-0.2005-0.43822-0.4708-0.43822zm15.38 0c-0.3217 0-0.5908 0.23771-0.6568 0.55553l-1.2965 6.719c-0.051 0.23473-0.0837 0.53648-0.0837 0.8754 0 1.2119 0.5051 2.7776 2.946 2.7776 3.1321 0 4.1261-2.5585 4.3424-3.653l1.2805-6.6347 0.0331-0.20154c0-0.25056-0.2004-0.43822-0.4708-0.43822-0.3191 0-0.5898 0.23771-0.6568 0.55553l-1.2965 6.6843c-0.1701 0.82421-0.8755 2.6112-2.9947 2.6112-1.684 0-2.0562-1.1129-2.0562-1.9885 0-0.23605 0.0342-0.45522 0.0672-0.6227l1.2805-6.6001 0.0331-0.20154c0-0.25056-0.2031-0.43822-0.4708-0.43822zm15.352 0c-0.3191 0-0.5863 0.23771-0.6563 0.55553h-5e-4l-1.8697 9.632-0.03 0.2005c0 0.25188 0.1834 0.4377 0.4682 0.4377 0.3231 0 0.5909-0.23587 0.6579-0.55501l1.8686-9.6309 0.0341-0.20154c0-0.25056-0.2006-0.43822-0.4723-0.43822z" fill="#505250"/>
  <path d="m-1409-317.4c0.9891-0.0514 1.7394-0.91521 1.8383-1.953l0.083-0.78861c0.9666-7.9019-1.5548-15.783-6.9207-21.626-4.8965-5.333-11.577-8.4413-18.812-8.7485-7.2332-0.30727-14.151 2.2208-19.483 7.1172-5.3343 4.8952-8.4413 11.576-8.7472 18.809-0.3086 7.2333 2.2181 14.154 7.1146 19.487 1.7895 1.9451 3.8375 3.612 6.0886 4.9519 0.017 0.0119 1.9346 1.2212 4.6393 2.23 1.0023 0.38507 1.9676 0.10813 2.5769-0.7385 0.5129-0.71343 0.4312-1.5271-0.2203-2.0388-0.3336-0.26374-1.1407-0.53409-1.1486-0.53804-3.4103-1.2884-6.3932-3.3087-8.8659-6.0003-8.7248-9.5042-8.0931-24.337 1.4071-33.063 9.5055-8.7261 24.337-8.0944 33.066 1.411 4.6103 5.0191 6.7809 11.807 5.9567 18.618-0.1332 1.0748-0.1951 1.7183-0.1951 1.7183s0 1.2383 1.622 1.1526" fill="#fac400"/>
 </g>
</svg>
