<?xml version="1.0" encoding="UTF-8"?>
<!-- Created with Inkscape (http://www.inkscape.org/) -->
<svg width="142.54mm" height="63.765mm" version="1.1" viewBox="0 0 142.54 63.765" xmlns="http://www.w3.org/2000/svg">
 <g transform="translate(219.77 -18.457)">
  <g transform="matrix(1.4286 0 0 1.4286 -319.68 -35.791)">
   <path d="m84.667 42.295v5.2917h5.2917v-5.2917zm10.583 5.2917v5.2917h5.2917v-5.2917zm0 5.2917h-5.2917v5.2917h5.2917zm50.265-0.73174c-4.7536 0-8.6077 3.8541-8.6077 8.6077 0 4.7537 3.8541 8.6067 8.6077 8.6067 2.7665 0 5.0083-0.98982 6.5939-2.4924l-2.7239-2.6308c-0.81774 0.96568-2.0094 1.5684-3.4478 1.5684-3.0946 0-4.7563-2.2593-4.7563-5.0462 0-2.7869 1.7927-5.0457 4.7563-5.0457 1.3723 0 2.5203 0.54885 3.3331 1.4376l2.6608-2.6722c-1.6376-1.4467-3.8723-2.3332-6.4162-2.3332zm8.9028 0.62684v16.162h11.191v-3.2856h-7.5355v-3.3626h6.7314v-3.1486h-6.7303v-3.0701h7.0946v-3.2949zm-32.021 0.0057v16.158h3.7677v-7.4528l6.228 7.4621 4.9082-5.17e-4 -7.2755-8.7173 6.9014-7.4388-4.7759-5.17e-4 -5.9862 6.7464v-6.7567zm-43.022 0.0992v5.2917h5.2917v-5.2917zm21.167 5.2917v5.2917h5.2917v-5.2917zm0 5.2917h-5.2917v5.2917h5.2917zm10.583 0v5.2917h5.2917v-5.2917z" fill="#014495" stroke-width=".26255"/>
   <path d="m74.11 47.6v5.2858h5.2858v-5.2858zm15.857 0v5.2858h5.2858v-5.2858zm5.2858 10.572v5.2858h5.2858v-5.2858zm10.572 0v5.2858h5.2858v-5.2858zm-5.2858 10.572v5.2858h5.2858v-5.2858z" fill="#d3031b" stroke-width=".26168"/>
   <g stroke-width=".26197">
    <path d="m95.25 42.295v5.2917h5.2917v-5.2917zm10.583 5.2917v5.2917h5.2917v-5.2917zm-21.167 5.2917v5.2917h5.2917v-5.2917zm5.2917 10.583v5.2917h5.2917v-5.2917zm15.875 5.2917v5.2917h5.2917v-5.2917z" fill="#7ab51d"/>
    <path d="m79.375 47.586v5.2917h5.2917v-5.2917zm21.167 0v5.2917h5.2917v-5.2917zm10.583 10.583v5.2917h5.2917v-5.2917zm-10.583 5.2917v5.2917h5.2917v-5.2917z" fill="#009de0"/>
    <path d="m79.375 42.295v5.2917h5.2917v-5.2917zm21.167 10.583v5.2917h5.2917v-5.2917zm-15.875 5.2917v5.2917h5.2917v-5.2917zm21.167 15.875v5.2917h5.2917v-5.2917z" fill="#f29400"/>
   </g>
  </g>
 </g>
</svg>
