<?xml version="1.0" encoding="UTF-8"?>
<!-- Created with Inkscape (http://www.inkscape.org/) -->
<svg width="114.32mm" height="63.5mm" version="1.1" viewBox="0 0 114.32 63.5" xmlns="http://www.w3.org/2000/svg" xmlns:xlink="http://www.w3.org/1999/xlink">
 <g transform="translate(-44.456 -83.141)">
  <g transform="matrix(2.4464 0 0 2.4464 -126.96 -181.59)">
   <path d="m71.777 131.46c-0.19385 0.27693-0.49847 0.44309-0.88618 0.44309-0.24923 0-0.49847-0.0554-0.60924-0.13846l0.60924-2.9632h0.33232l-0.22154 1.0246c0.11077-0.0554 0.24923-0.0831 0.44308-0.0831 0.4154 0 0.63694 0.27693 0.63694 0.72001 0 0.33232-0.11077 0.74772-0.30462 0.99695m-0.44309-1.5231c-0.16616 0-0.27693 0.0277-0.3877 0.0831l-0.33232 1.6062c0.0554 0.0277 0.16616 0.0554 0.27693 0.0554 0.24924 0 0.47079-0.13846 0.60925-0.36001 0.13847-0.22154 0.24924-0.60924 0.24924-0.88617s-0.11077-0.49848-0.4154-0.49848m2.1878 0.0554c-0.19385-0.0554-0.3877-0.0277-0.49847 0.0277l-0.38771 1.8554h-0.33231l0.41539-1.9939c0.16616-0.0831 0.44309-0.13847 0.77541-0.13847h0.13846zm1.5785 1.7447c-0.16616 0.0831-0.41539 0.13847-0.74771 0.13847-0.44309 0-0.66463-0.19385-0.66463-0.49848 0-0.0554 0-0.11077 0.0277-0.19385l0.30462-1.44h0.33232l-0.30462 1.4677c0 0.0554-0.0277 0.11078-0.0277 0.13847 0 0.16616 0.0831 0.30462 0.36001 0.30462 0.16616 0 0.27693-0.0277 0.3877-0.0554l0.38771-1.8277h0.33231zm2.0216 0.16616c-0.11077 0.52617-0.47078 0.83079-0.96926 0.83079-0.24923 0-0.49847-0.0554-0.63693-0.13847l0.13846-0.22154c0.11077 0.0554 0.27693 0.11077 0.47078 0.11077 0.3877 0 0.55386-0.24923 0.63694-0.55386l0.0277-0.13846c-0.11077 0.0554-0.24923 0.0831-0.41539 0.0831-0.4154 0-0.66463-0.27693-0.66463-0.72002 0-0.33232 0.11077-0.72002 0.30462-0.99695s0.49847-0.47078 0.91387-0.47078c0.27693 0 0.49847 0.0831 0.60924 0.13847zm-0.22154-1.9939c-0.24924 0-0.47079 0.13847-0.60925 0.4154-0.13847 0.22154-0.22154 0.60924-0.22154 0.88617 0 0.30463 0.13846 0.47079 0.44308 0.47079 0.13847 0 0.27693-0.0277 0.36001-0.0831l0.33232-1.6062c-0.0554-0.0554-0.13847-0.0831-0.30462-0.0831m2.2985 1.9939c-0.11077 0.52616-0.47078 0.83079-0.96925 0.83079-0.24924 0-0.49847-0.0554-0.63694-0.13847l0.13847-0.22154c0.11077 0.0554 0.27693 0.11077 0.47078 0.11077 0.3877 0 0.55386-0.24924 0.63694-0.55386l0.0277-0.13846c-0.11077 0.0554-0.24924 0.0831-0.4154 0.0831-0.41539 0-0.66463-0.27693-0.66463-0.72002 0-0.33232 0.13847-0.72002 0.30462-0.99695 0.19386-0.27693 0.49848-0.47078 0.91387-0.47078 0.27693 0 0.49848 0.0831 0.60925 0.13846zm-0.22154-1.9939c-0.24924 0-0.47078 0.13847-0.60925 0.4154-0.13846 0.22154-0.22154 0.60924-0.22154 0.88617 0 0.30463 0.13847 0.47078 0.44309 0.47078 0.13846 0 0.27693-0.0277 0.36001-0.0831l0.33231-1.6062c-0.0554-0.0554-0.16615-0.0831-0.30462-0.0831m2.6031 0.83079-1.357 0.19385c-0.0554 0.36001 0.0277 0.72002 0.49847 0.72002 0.22154 0 0.41539-0.0831 0.55386-0.13847l0.0554 0.22155c-0.13847 0.0831-0.38771 0.13846-0.66464 0.13846-0.44308 0-0.74771-0.24923-0.74771-0.74771 0-0.30462 0.11077-0.69232 0.27693-0.96925 0.19385-0.30463 0.49848-0.47078 0.8031-0.47078 0.3877 0 0.63694 0.22154 0.63694 0.66463-0.0277 0.13846-0.0277 0.27693-0.0554 0.3877m-0.63694-0.8031c-0.19385 0-0.41539 0.11077-0.55386 0.36001-0.0554 0.11077-0.11077 0.27693-0.16615 0.44309l1.0523-0.16616c0.0277-0.11077 0.0277-0.19385 0.0277-0.24924 0-0.27693-0.13846-0.3877-0.36001-0.3877m2.8247 0.96926h-0.91387l0.0831-0.27693h0.85848zm2.8801 0.52616c-0.16616 0.27693-0.44309 0.47079-0.8031 0.47079-0.44308 0-0.63693-0.27693-0.63693-0.72002 0-0.33232 0.11077-0.74771 0.27693-0.99695 0.16615-0.27693 0.44308-0.47078 0.80309-0.47078 0.44309 0 0.63694 0.27693 0.63694 0.69232 0 0.33232-0.0831 0.74771-0.27693 1.0246m-0.3877-1.4954c-0.24924 0-0.4154 0.16616-0.52617 0.3877-0.11077 0.22155-0.19385 0.63694-0.19385 0.88618s0.0831 0.44309 0.36001 0.44309c0.24924 0 0.4154-0.16616 0.49847-0.3877 0.11078-0.22155 0.22155-0.63694 0.22155-0.91387 0-0.22155-0.0831-0.4154-0.36001-0.4154m2.4647 1.4954c-0.16616 0.27693-0.44309 0.47079-0.8031 0.47079-0.44309 0-0.63694-0.27693-0.63694-0.72002 0-0.33232 0.11077-0.74771 0.27693-0.99695 0.16616-0.27693 0.44309-0.47078 0.8031-0.47078 0.44309 0 0.63694 0.27693 0.63694 0.69232 0 0.33232-0.11078 0.74771-0.27693 1.0246m-0.38771-1.4954c-0.24923 0-0.41539 0.16616-0.52616 0.3877-0.11077 0.22155-0.19385 0.63694-0.19385 0.88618s0.0831 0.44309 0.36001 0.44309c0.24923 0 0.41539-0.16616 0.49847-0.3877 0.11077-0.22155 0.22154-0.63694 0.22154-0.91387-0.0277-0.22155-0.11077-0.4154-0.36001-0.4154m2.2154 0.11077c-0.0554-0.0554-0.19385-0.11077-0.33231-0.11077-0.24924 0-0.44309 0.19385-0.44309 0.4154 0 0.3877 0.66463 0.27693 0.66463 0.80309 0 0.38771-0.33231 0.74772-0.85848 0.74772-0.19385 0-0.4154-0.0554-0.52617-0.13847l0.13847-0.22154c0.0554 0.0554 0.19385 0.11077 0.3877 0.11077 0.27693 0 0.47078-0.22155 0.47078-0.47078 0-0.3877-0.66463-0.27693-0.66463-0.8031 0-0.33232 0.30462-0.69232 0.74771-0.69232 0.19385 0 0.36001 0.0554 0.47078 0.13846zm1.4677-0.0831h-0.36001l-0.27693 1.3846v0.11078c0 0.11077 0.0554 0.19385 0.19386 0.19385 0.0277 0 0.0831 0 0.11077-0.0277l-0.0554 0.22154c-0.0554 0.0277-0.11077 0.0277-0.19385 0.0277-0.30462 0-0.41539-0.19385-0.41539-0.3877 0-0.0554 0-0.11077 0.0277-0.13847l0.27693-1.3846h-0.24925l0.0554-0.22154h0.24923l0.11078-0.47078 0.36001-0.11077-0.13847 0.58155h0.36001zm1.8277 0.77541-1.357 0.19385c-0.0554 0.36001 0.0277 0.72002 0.49848 0.72002 0.22154 0 0.44309-0.0831 0.55386-0.13847l0.0554 0.22155c-0.13846 0.0831-0.3877 0.13846-0.66463 0.13846-0.44309 0-0.74771-0.24924-0.74771-0.74771 0-0.30462 0.11077-0.69232 0.27693-0.96925 0.19385-0.30463 0.49848-0.47079 0.8031-0.47079 0.3877 0 0.63694 0.22155 0.63694 0.66464 0 0.13846-0.0277 0.27693-0.0554 0.3877m-0.63694-0.8031c-0.19385 0-0.41539 0.11077-0.55386 0.36001-0.0554 0.11077-0.11077 0.27693-0.16616 0.44309l1.0523-0.16616c0.0277-0.11077 0.0277-0.19385 0.0277-0.24924 0-0.27693-0.11077-0.3877-0.36001-0.3877m2.7139 0.4154-0.30463 1.4954h-0.33231l0.30462-1.5231v-0.11077c0-0.16616-0.11077-0.27693-0.36001-0.27693-0.16616 0-0.27693 0.0277-0.41539 0.0831l-0.38771 1.8554h-0.33231l0.41539-1.9939c0.19385-0.0831 0.47078-0.13847 0.77541-0.13847 0.47078 0 0.66463 0.22155 0.66463 0.49848-0.0277 0.0277-0.0277 0.0831-0.0277 0.11077m1.7724 1.3846c-0.13847 0.0831-0.36001 0.13846-0.66463 0.13846-0.49848 0-0.74771-0.27693-0.74771-0.74771 0-0.33231 0.11077-0.72002 0.33231-0.99695 0.22155-0.27693 0.49848-0.44308 0.85848-0.44308 0.11078 0 0.24924 0.0277 0.33232 0.0554l0.19385-0.96926h0.33232zm-0.22155-1.8c-0.27693 0-0.49847 0.13847-0.63693 0.36001-0.13847 0.22155-0.24924 0.58155-0.24924 0.85848 0 0.30463 0.13846 0.52617 0.44309 0.52617 0.13846 0 0.24923-0.0277 0.33231-0.0554l0.33232-1.6339c-0.0277-0.0554-0.11077-0.0554-0.22155-0.0554m2.5754 0.8031-1.357 0.19385c-0.0554 0.36001 0.0277 0.72002 0.49847 0.72002 0.22154 0 0.4154-0.0831 0.55386-0.13846l0.0554 0.22154c-0.13847 0.0831-0.38771 0.13846-0.66464 0.13846-0.44308 0-0.74771-0.24923-0.74771-0.74771 0-0.30462 0.11078-0.69232 0.27693-0.96925 0.19385-0.30462 0.49848-0.47078 0.8031-0.47078 0.3877 0 0.63694 0.22154 0.63694 0.66463 0 0.13846-0.0277 0.27693-0.0554 0.3877m-0.63694-0.8031c-0.19385 0-0.41539 0.11078-0.55386 0.36001-0.0554 0.11078-0.11077 0.27693-0.16615 0.44309l1.0523-0.16616c0.0277-0.11077 0.0277-0.19385 0.0277-0.24923 0-0.27693-0.13846-0.38771-0.36001-0.38771m3.4893 1.8c-0.13846 0.0831-0.36001 0.13846-0.66463 0.13846-0.49847 0-0.74771-0.30462-0.74771-0.74771 0-0.33231 0.13846-0.74771 0.33232-0.99694 0.19385-0.27693 0.49847-0.4154 0.88617-0.4154 0.24924 0 0.49848 0.0831 0.60925 0.13847zm-0.24923-1.8277c-0.24924 0-0.44309 0.13847-0.60925 0.36001-0.13847 0.22154-0.24924 0.58155-0.24924 0.85848 0 0.30463 0.13847 0.52617 0.44309 0.52617 0.13847 0 0.24924-0.0277 0.33232-0.0554l0.33231-1.6339c-0.0277 0-0.11077-0.0554-0.24923-0.0554m1.6616 1.9385h-0.33232l-0.24927-2.1046h0.36001l0.13847 1.5231v0.24924s0.0277-0.11077 0.11077-0.24924l0.74771-1.5231h0.33232z" fill="#7c84b0"/>
   <path d="m73.937 126.75c-0.33231 0.16616-0.85848 0.30463-1.5508 0.30463-1.1077 0-1.6893-0.60925-1.6893-1.6062 0-0.69232 0.27693-1.5231 0.69233-2.0493 0.44309-0.55386 1.1077-0.88618 1.9662-0.88618 0.58155 0 1.1354 0.13847 1.4123 0.30463zm-0.74771-3.6555c-0.44308 0-0.83079 0.24923-1.08 0.69232-0.27693 0.44309-0.44309 1.1354-0.44309 1.6616 0 0.58156 0.24924 0.96926 0.83079 0.96926 0.22154 0 0.41539-0.0277 0.55386-0.11077l0.66463-3.1293c-0.11077-0.0277-0.27693-0.0831-0.52617-0.0831m2.9078 3.2678h1.6616l-0.13847 0.63694h-2.9632l2.437-3.7662h-1.4954l0.13847-0.63694h2.7416zm7.6433-2.9908c-0.13847-0.11078-0.38771-0.19385-0.66464-0.19385-0.44308 0-0.7754 0.33231-0.7754 0.72001 0 0.72002 1.3293 0.52617 1.3293 1.5785 0 0.83079-0.66463 1.6062-1.8831 1.6062-0.47078 0-0.91387-0.13847-1.1631-0.30462l0.38771-0.60925c0.13846 0.11077 0.41539 0.22154 0.7754 0.22154 0.49847 0 0.83079-0.3877 0.83079-0.80309 0-0.72002-1.2739-0.52617-1.2739-1.5785 0-0.74772 0.60925-1.4954 1.6616-1.4954 0.47078 0 0.83079 0.11078 1.08 0.30463zm1.4123 3.6278h-0.99695l0.91387-4.4032h0.99695zm5.1786-3.0739-0.63694 3.0739h-0.99695l0.66464-3.1016c0.0277-0.0831 0.0277-0.13846 0.0277-0.22154 0-0.27693-0.16616-0.52617-0.66463-0.52617-0.24924 0-0.49848 0.0277-0.69233 0.11077l-0.7754 3.7386h-0.99695l0.85848-4.154c0.44309-0.19385 1.08-0.30462 1.7724-0.30462 1.08 0 1.5231 0.44308 1.5231 1.08-0.0554 0.0831-0.0554 0.19385-0.0831 0.30463m3.0185-0.69233h-0.72002l-0.52617 2.6031c-0.0277 0.0831-0.0277 0.13847-0.0277 0.19385 0 0.22155 0.11077 0.36001 0.36001 0.36001 0.0831 0 0.19385-0.0277 0.24924-0.0554l-0.11078 0.63694c-0.11077 0.0554-0.30462 0.11077-0.52616 0.11077-0.69233 0-0.96926-0.41539-0.96926-0.91386 0-0.11078 0-0.22155 0.0277-0.30463l0.52617-2.6031h-0.49847l0.13846-0.63694h0.49848l0.19385-0.96925 1.0523-0.27693-0.24924 1.2462h0.72002zm2.1047 1.9939h-1.9108l0.16616-0.74771h1.8831zm1.7446 1.3293c-0.24923 1.2739-1.1354 2.077-2.3816 2.2431l0.13846-0.69232c0.60925-0.19385 1.0523-0.69233 1.2185-1.44l0.83079-4.0709h0.99695zm4.2924 0.19385c-0.33232 0.16616-0.85848 0.30463-1.5508 0.30463-1.1077 0-1.6893-0.60925-1.6893-1.6062 0-0.69232 0.27693-1.5231 0.69232-2.0493 0.44309-0.55386 1.1077-0.88618 1.9662-0.88618 0.58155 0 1.1354 0.13847 1.4123 0.30463zm-0.74771-3.6555c-0.44309 0-0.83079 0.24923-1.08 0.69232-0.27693 0.44309-0.44309 1.1354-0.44309 1.6616 0 0.58155 0.24924 0.96926 0.83079 0.96926 0.22155 0 0.4154-0.0277 0.55386-0.11078l0.66464-3.1293c-0.11078-0.0277-0.27693-0.0831-0.52617-0.0831m5.7048 0.83079-0.63694 3.0739h-0.99695l0.66463-3.1016c0.0277-0.0831 0.0277-0.13846 0.0277-0.22154 0-0.27693-0.16616-0.52617-0.66464-0.52617-0.24923 0-0.49847 0.0277-0.69232 0.11077l-0.77541 3.7386h-0.99694l0.85848-4.154c0.44309-0.19385 1.08-0.30462 1.7724-0.30462 1.08 0 1.5231 0.44308 1.5231 1.08-0.0554 0.0831-0.0554 0.19385-0.0831 0.30463" fill="#06326e"/>
   <g stroke-width=".27693">
    <path d="m104.9 111.94c-1.8 0.96926-1.6893 3.6832 0.24923 6.0648 0.24924 0.30462 0.44309 0.49847 0.77541 0.85848 0.47078 0.44309 1.4677 1.3293 3.1847 1.8831 1.0246 0.30462 2.0216 0.27692 2.7693-0.13847 1.1354-0.60925 1.5231-1.9662 1.1354-3.4339-0.0277-0.24924-0.11077-0.30462-0.19385-0.27693-0.0554 0.0277-0.11077 0.0831-0.16615 0.36001-0.11078 0.66463-0.69233 1.44-1.4954 1.8554-1.7724 0.94156-4.2924 0.36001-5.6494-1.3293-1.357-1.6893-1.0246-3.7939 0.74771-4.7355 0.91387-0.47078 2.1601-0.13846 3.2124 0.13847 0.22154 0.0554 0.33232 0.11077 0.66463 0.22154 0.19385 0.0831 0.4154-0.0554 0.19385-0.22154-0.13846-0.11078-1.357-0.96926-2.1324-1.1908-1.2739-0.47078-2.4093-0.55386-3.2955-0.0554" fill="#9da3c6"/>
    <path d="m110.58 122.85c1.6893 1.1354 4.0432-0.19385 5.2617-3.0185 0.16616-0.36001 0.24924-0.63694 0.3877-1.08 0.16616-0.63694 0.49848-1.9108 0.19385-3.6832-0.22154-1.0523-0.69232-1.9108-1.4123-2.4093-1.08-0.72002-2.437-0.44309-3.5724 0.58155-0.19385 0.13847-0.19385 0.24924-0.16615 0.30463 0.0554 0.0554 0.11077 0.0554 0.3877-0.0277 0.66463-0.19385 1.5785-0.0554 2.3539 0.47078 1.6616 1.1354 2.2985 3.6555 1.44 5.6217-0.85848 1.9662-2.9078 2.6585-4.5416 1.5231-0.85849-0.58156-1.5508-1.8277-1.8-2.8801-0.0554-0.22155-0.0831-0.44309-0.16616-0.74772-0.0277-0.22154-0.19385-0.36-0.24923-0.0831-0.0277 0.16615 0.16615 1.6893 0.33231 2.4924 0.19385 1.3293 0.72002 2.3539 1.5508 2.9354" fill="#bcc0d9"/>
    <path d="m116.64 111.74c-0.0277-2.0493-2.4924-3.1847-5.5109-2.5478-0.3877 0.0831-0.66463 0.16616-1.1077 0.30463-0.60925 0.22154-1.8554 0.72002-3.1293 1.9662-0.72002 0.7754-1.1631 1.6616-1.1354 2.5478 0.0277 1.3016 1.0523 2.2431 2.5478 2.5754 0.22155 0.0831 0.33232 0.0277 0.33232-0.0554 0.0277-0.0831-0.0277-0.13847-0.24924-0.30462-0.55386-0.4154-0.96925-1.2739-0.96925-2.1878-0.0277-1.9939 1.6616-3.9878 3.7662-4.4309 2.1047-0.44309 3.8493 0.83079 3.877 2.8247 0.0277 1.0246-0.4154 2.0493-1.1354 2.8524-0.13846 0.16616-0.24923 0.24924-0.49847 0.49848-0.16616 0.13846-0.19385 0.33231 0.0554 0.22154 0.13846-0.0831 1.08-0.7754 1.6616-1.357 0.94156-0.91387 1.5231-1.8831 1.4954-2.9078" fill="#cfd1e4"/>
   </g>
  </g>
 </g>
</svg>
