<?xml version="1.0" encoding="UTF-8"?>
<!-- Created with Inkscape (http://www.inkscape.org/) -->
<svg width="167.2mm" height="63.765mm" version="1.1" viewBox="0 0 167.2 63.765" xmlns="http://www.w3.org/2000/svg">
 <path d="m116.66 57.5c-3.2202-0.6955-4.1532-2.793-4.1472-9.3232 3e-3 -4.614 0.45934-6.4728 1.9494-7.9618 1.4299-1.4289 3.7452-1.8942 6.4925-1.3051l1.3595 0.29162v1.0839c0 1.0588-0.0159 1.0785-0.74043 0.85342-0.40725-0.12689-1.5505-0.23088-2.5406-0.2312-1.6107-5.4e-4 -1.884 0.0798-2.5967 0.76279-1.1661 1.1178-1.5232 2.7295-1.5014 6.7756 0.0223 3.8785 0.36012 5.5255 1.3398 6.5053 0.58431 0.58431 0.84922 0.64595 2.4718 0.57484l1.8174-0.0795 0.15137-6.5965h-2.7091v-1.8847h5.1159v9.8772l-1.0097 0.29988c-1.3873 0.41205-4.3122 0.604-5.4523 0.3578zm-96.93-0.30275c-3.7529-0.50218-6.8274-1.9919-9.4472-4.5775-2.1334-2.1055-3.5598-4.5711-4.2852-7.4078-0.51279-2.005-0.53773-2.993-0.53773-21.311v-19.208h17.508l-0.0127 17.297c-0.01 16.053 0.0223 17.322 0.45171 17.636 0.3383 0.24741 2.0442 0.33852 6.3351 0.33852h5.8721v-35.271h17.501v15.078h21.854l-21.854 21.601v16.094l-15.953-0.0353c-8.7743-0.0191-16.619-0.12466-17.434-0.23342zm30.964-9.3556v-7.2011l18.441-18.447h-18.441v-15.078h-12.655l1.9e-4 17.569 2.2e-4 17.569-7.6053-0.0795c-8.3354-0.0875-8.3567-0.0913-9.3699-1.7524-0.50469-0.82766-0.52469-1.4782-0.52565-17.088l-1e-3 -16.227-12.79 0.14438-0.077 16.693c-0.0474 10.297 0.0286 17.519 0.19908 18.848 0.7126 5.5633 4.9702 10.351 10.513 11.822 1.2119 0.3217 4.2801 0.39631 16.895 0.41081l15.415 0.0191zm45.17 2.018-0.0716-7.6062h-21.673l21.807-21.812v-15.749h2.4233v16.825l-18.441 18.447h18.441v17.501h-2.4149zm30.758-1.6155v-9.2217h8.3469v2.0194h-6.2111l0.15264 5.7888 4.981 0.15456v1.8443l-4.981 0.15455-0.076 3.1637-0.0757 3.1637h6.2098v2.154h-8.3469zm11.578 0.0922v-9.1295l2.9323-0.18445 2.7457 7.0004c1.5102 3.8502 2.8193 7.0853 2.9092 7.189 0.09 0.10367 0.12084-3.0466 0.0684-7.0004l-0.0951-7.189h2.2095v18.472l-2.7527-0.16282-2.8127-7.1352c-1.547-3.9243-2.9433-7.2564-3.1029-7.4043-0.20512-0.19017-0.23215-0.0716-0.0922 0.40388 0.10908 0.3702 0.26109 3.7325 0.33821 7.4717l0.14024 6.7985h-2.4879zm17.501 0.91747v-8.212h-4.0388v-2.0194h10.501v2.0194h-4.0388v16.424h-2.4232zm-40.279-18.29c-1.1788-0.51314-1.9754-1.7679-2.272-3.5789-0.14024-0.85571-0.25568-4.4942-0.25632-8.0852l-2e-3 -6.5294h2.4232l5.4e-4 7.0678c5.4e-4 7.7248 0.13961 8.5262 1.6151 9.2965 1.0681 0.55769 2.9613 0.24932 3.6934-0.60175 0.60839-0.70729 0.61472-0.79191 0.61472-8.2387l-1.3e-4 -7.5242h2.4232v7.3642c0 4.7915-0.10717 7.6838-0.30656 8.2794-0.39637 1.1834-1.2242 2.1028-2.31 2.5654-1.1034 0.47014-4.5294 0.4606-5.6234-0.0159zm11.754-0.75944c0.01-0.51032 1.3386-3.8492 3.1916-8.0101 1.7477-3.9243 3.1276-7.2259 3.0664-7.3372-0.0611-0.11099-1.4236-0.20194-3.0276-0.20194h-2.9164l-0.11004-0.94236-0.11003-0.9424h9.0465v0.81818c0 0.45912-1.3717 3.9154-3.1257 7.8756-1.7191 3.8817-3.1862 7.2087-3.26 7.3941-0.10272 0.25823 0.62585 0.33656 3.1257 0.33656h3.26v1.8848h-9.1546z" fill="#1e63c8"/>
</svg>
